<?xml version="1.0" encoding="UTF-8"?>
<svg version="1.1" xmlns="http://www.w3.org/2000/svg" width="1200" height="1200">
<path d="M0 0 C3.69918044 0.00871432 7.39833155 -0.00044519 11.09751054 -0.00706416 C17.54511719 -0.01625316 23.99264538 -0.01459443 30.44025089 -0.00533163 C40.02860346 0.00840471 49.61689706 0.00465837 59.20525415 -0.00229023 C76.33936416 -0.01415356 93.47343711 -0.00917904 110.60754504 0.00298804 C125.59955411 0.01356047 140.59155059 0.01805892 155.58356335 0.01669253 C157.08027969 0.01656648 157.08027969 0.01656648 158.60723273 0.01643789 C162.65849957 0.01608559 166.70976639 0.01570157 170.76103322 0.01527231 C208.69212753 0.01131551 246.62319963 0.02398685 284.55428759 0.04479888 C318.19962421 0.06317266 351.84493955 0.06897854 385.49028065 0.06352747 C387.65163407 0.06318104 389.81298749 0.06283494 391.97434091 0.06248918 C393.57719824 0.06223269 393.57719824 0.06223269 395.21243651 0.06197102 C400.59233257 0.06111737 405.97222864 0.0602936 411.35212471 0.05950201 C412.41367199 0.05934493 413.47521927 0.05918785 414.56893465 0.05902601 C442.74916333 0.05503014 470.92938999 0.06051921 499.10961743 0.06901331 C502.14407773 0.06992027 505.17853803 0.07082592 508.21299834 0.07172854 C510.22566037 0.07232964 512.2383224 0.07293826 514.25098443 0.07355445 C528.2411293 0.07776405 542.23127015 0.07835902 556.22141546 0.07644895 C574.25288596 0.07399915 592.28433494 0.078133 610.31579959 0.09365895 C619.83529472 0.10166834 629.35475404 0.10434117 638.87425126 0.0990166 C645.25177177 0.09601545 651.62926093 0.10041762 658.00677395 0.11056517 C661.62746787 0.11613191 665.24808941 0.11879139 668.86878365 0.1123986 C741.98408375 -0.00537335 811.37076764 17.03873915 865.07499745 69.3792013 C865.99973866 70.27324671 865.99973866 70.27324671 866.94316151 71.18535365 C874.85018016 78.85306533 882.39454662 86.59676413 889.07499745 95.3792013 C889.48636952 95.90884486 889.89774159 96.43848841 890.32157948 96.98418177 C913.56116443 126.98155946 935.44519913 167.37263846 935.33785298 206.16616 C935.34115687 207.56132064 935.34533152 208.95647944 935.35029318 210.35163517 C935.36138678 214.18356931 935.36008899 218.01541372 935.356738 221.84735875 C935.35527255 226.01720962 935.36532933 230.18703552 935.37388804 234.35687567 C935.38903192 242.62659591 935.39343334 250.89629032 935.39454615 259.16602299 C935.39637506 269.07225062 935.40971511 278.97845443 935.4232398 288.8846718 C935.45534993 312.82880214 935.46716577 336.77292992 935.47673729 360.71707792 C935.48141074 372.04802768 935.48861627 383.3789754 935.49612805 394.70992358 C935.52179979 433.50870307 935.54323683 472.30748145 935.55013325 511.10626925 C935.55057651 513.54159123 935.55102008 515.97691322 935.55146395 518.4122352 C935.55190523 520.8533959 935.5523462 523.2945566 935.55278685 525.7357173 C935.55367195 530.63299192 935.55456618 535.53026653 935.5554662 540.42754115 C935.55568498 541.64177935 935.55590376 542.85601755 935.55612917 544.10705085 C935.56338767 583.46364896 935.59521742 622.82017333 935.64184692 662.17674321 C935.69107316 703.80126871 935.71848036 745.42575207 935.72086909 787.05030752 C935.72121198 791.62252297 935.72164284 796.1947384 935.72213795 800.76695383 C935.72224949 801.89273539 935.72236102 803.01851695 935.72247594 804.17841311 C935.72477443 822.27261182 935.74679707 840.36673469 935.77591206 858.46090782 C935.80468907 876.66024469 935.81108957 894.85948466 935.79503211 913.05883803 C935.78614128 923.86092827 935.79375293 934.66270506 935.82550912 945.46475392 C935.84509096 952.694156 935.84257486 959.92333987 935.82263666 967.15274022 C935.81191099 971.26299693 935.81023927 975.37265432 935.8356541 979.48285999 C935.94000401 997.50721498 935.02117173 1014.17065585 929.07499745 1031.3792013 C928.74777535 1032.32668774 928.42055326 1033.27417417 928.08341535 1034.25037231 C923.93803918 1046.08290015 919.00199159 1057.33804269 913.07499745 1068.3792013 C912.69085682 1069.10736048 912.3067162 1069.83551966 911.91093495 1070.58574427 C906.34788914 1081.10393853 900.28669324 1090.91459558 893.07499745 1100.3792013 C892.40855213 1101.25834193 891.74210682 1102.13748255 891.0554662 1103.0432638 C886.55863221 1108.81313226 881.67689998 1114.17745329 876.6882787 1119.5198263 C874.82453677 1121.55907756 873.08924726 1123.58807795 871.3679662 1125.7385763 C870.61128651 1126.60998255 869.85460682 1127.4813888 869.07499745 1128.3792013 C868.41499745 1128.3792013 867.75499745 1128.3792013 867.07499745 1128.3792013 C866.81073963 1128.9773263 866.54648182 1129.5754513 866.2742162 1130.1917013 C864.11592928 1134.1286416 860.50519838 1136.55881387 857.07499745 1139.3792013 C856.56275624 1139.80765345 856.05051502 1140.2361056 855.52275135 1140.67754115 C840.8259013 1152.94558386 825.03617822 1163.50035673 808.07499745 1172.3792013 C807.39517811 1172.74078333 806.71535877 1173.10236536 806.01493885 1173.47490443 C769.77933437 1192.51181686 727.79936728 1200.57421288 687.12446644 1200.51062907 C685.26116462 1200.51370802 685.26116462 1200.51370802 683.36022033 1200.51684917 C679.93675456 1200.52150309 676.51334173 1200.52175373 673.08987679 1200.52007158 C669.35576996 1200.5193353 665.62166996 1200.52437548 661.88756611 1200.5286466 C654.49222514 1200.53619806 647.0968914 1200.5384182 639.70154697 1200.53897565 C630.83833995 1200.53989214 621.97513954 1200.54656818 613.11193538 1200.55332248 C591.69195574 1200.56935672 570.27197684 1200.57528314 548.85199228 1200.58007122 C538.71003797 1200.58241008 528.56808422 1200.58601308 518.42613035 1200.5897666 C483.67975322 1200.60260075 448.9333764 1200.61331932 414.18699696 1200.6167692 C412.00715902 1200.61699083 409.82732107 1200.61721262 407.64748313 1200.61743455 C405.46250504 1200.61765519 403.27752696 1200.61787567 401.09254887 1200.618096 C396.70941975 1200.61853854 392.32629063 1200.61898566 387.94316151 1200.61943568 C386.31302853 1200.61959976 386.31302853 1200.61959976 384.64996358 1200.61976716 C349.43621282 1200.62339531 314.22248268 1200.63930693 279.00873982 1200.66262604 C241.74148295 1200.6872597 204.47423786 1200.70094371 167.20697262 1200.70213712 C163.11047031 1200.70230856 159.01396801 1200.70252399 154.91746571 1200.70277155 C153.40455614 1200.70285521 153.40455614 1200.70285521 151.86108274 1200.70294055 C135.67633074 1200.70408801 119.49160001 1200.71508407 103.30685518 1200.72965861 C87.01675553 1200.74407353 70.72668294 1200.74723255 54.43657865 1200.73921863 C44.77781215 1200.73478561 35.11913344 1200.73852891 25.4603786 1200.75445714 C18.98556369 1200.76429152 12.51080948 1200.76294934 6.03599498 1200.75302091 C2.36184189 1200.74768896 -1.31214412 1200.74671944 -4.98628257 1200.75952963 C-62.18926195 1200.94604875 -118.68677185 1189.27637549 -165.92500255 1155.3792013 C-166.88148693 1154.69599818 -167.8379713 1154.01279505 -168.82344005 1153.3088888 C-187.35449728 1139.73890201 -205.10842905 1123.79259321 -218.92500255 1105.3792013 C-219.34797619 1104.82732142 -219.77094982 1104.27544154 -220.20674083 1103.70683802 C-227.14328242 1094.64731666 -233.33894445 1085.32638838 -238.92500255 1075.3792013 C-239.33105724 1074.66280482 -239.73711193 1073.94640833 -240.1554713 1073.20830286 C-250.38702009 1055.00401644 -257.71229466 1035.5965305 -262.92500255 1015.3792013 C-263.26300554 1014.12552496 -263.60100852 1012.87184862 -263.94925401 1011.58018208 C-265.32769926 1005.29433613 -265.20565965 999.04813997 -265.18785808 992.63909472 C-265.19116201 991.24905035 -265.19533667 989.85900784 -265.20029829 988.4689684 C-265.21139145 984.65123971 -265.21009418 980.83360109 -265.20674311 977.01586147 C-265.20527762 972.86140962 -265.21533454 968.70698283 -265.22389314 964.55254174 C-265.23903678 956.31342893 -265.24343844 948.07434205 -265.24455126 939.83521678 C-265.24638019 929.96562256 -265.25972031 920.09605225 -265.2732449 910.22646833 C-265.30535479 886.3708928 -265.31717086 862.51531985 -265.3267424 838.65972659 C-265.33141587 827.3706335 -265.33862141 816.08154245 -265.34613315 804.79245095 C-265.37180489 766.13683225 -265.39324192 727.48121468 -265.40013836 688.82558764 C-265.40058162 686.39925842 -265.40102519 683.97292919 -265.40146906 681.54659997 C-265.40191034 679.11445426 -265.4023513 676.68230856 -265.40279196 674.25016285 C-265.40367705 669.37097514 -265.40457129 664.49178744 -265.4054713 659.61259974 C-265.40569009 658.40284606 -265.40590887 657.19309239 -265.40613428 655.94667951 C-265.41339275 616.7355867 -265.4452224 577.52456791 -265.49185203 538.31350344 C-265.54107865 496.84266362 -265.56848548 455.37186609 -265.57087419 413.90099622 C-265.57121709 409.34563172 -265.57164794 404.79026723 -265.57214306 400.23490275 C-265.57225459 399.11327064 -265.57236613 397.99163853 -265.57248105 396.83601757 C-265.5747795 378.80876672 -265.59680188 360.78159199 -265.62591717 342.75436681 C-265.65469466 324.6222423 -265.6610944 306.49021503 -265.64503721 288.35807394 C-265.63614661 277.59597539 -265.64375713 266.83419146 -265.67551422 256.07213445 C-265.69509685 248.86938973 -265.69257922 241.66686402 -265.67264177 234.46412103 C-265.66191665 230.36908915 -265.66024251 226.27465878 -265.68565921 222.17967814 C-265.79047269 204.15773726 -264.76226534 187.60863749 -258.92500255 170.3792013 C-258.64598435 169.53250444 -258.36696615 168.68580759 -258.07949285 167.81345325 C-249.19552049 140.97569493 -235.47784615 116.46315195 -217.92500255 94.3792013 C-217.26468029 93.54227747 -216.60435802 92.70535365 -215.92402599 91.84306849 C-210.45066765 85.01527769 -204.61621141 78.68496318 -198.42500255 72.5042013 C-197.95066784 72.0294134 -197.47633312 71.5546255 -196.98762462 71.06545008 C-188.55696826 62.65822983 -179.66271232 55.23186726 -169.92500255 48.3792013 C-168.99687755 47.70115443 -168.06875255 47.02310755 -167.11250255 46.3245138 C-150.52499886 34.36237171 -132.18189059 24.2866103 -112.92500255 17.3792013 C-112.09500744 17.07272669 -111.26501232 16.76625208 -110.40986583 16.45049036 C-89.31706952 8.71935637 -67.77889504 3.88755038 -45.43133209 1.73462141 C-44.77187845 1.67090787 -44.1124248 1.60719433 -43.43298771 1.54155008 C-28.96144815 0.17152067 -14.53187525 -0.04787132 0 0 Z " fill="#1A2127" transform="translate(264.92500255350024,-0.37920130137354136)"/>
<path d="M0 0 C155.19409916 0 155.19409916 0 162.5703125 6.54931641 C165.18611329 9.2035323 167.33025593 12.16614352 169.5 15.1875 C170.55184296 16.62092479 171.60529197 18.05317215 172.66015625 19.484375 C173.47830811 20.5971582 173.47830811 20.5971582 174.31298828 21.73242188 C177.12699345 25.51483577 180.03233918 29.22492457 182.9375 32.9375 C190.22832593 42.27464512 197.42207672 51.68385595 204.60449219 61.10449219 C210.70053651 69.09790714 216.82000754 77.07124293 223 85 C233.1923346 98.07817524 243.21735523 111.28349973 253.26245117 124.47485352 C257.66373722 130.25257272 262.0807298 136.01756147 266.515625 141.76953125 C268.38708562 144.19921397 270.2496953 146.63550755 272.109375 149.07421875 C277.1994034 155.74843092 282.29870928 162.4119524 287.5 169 C295.41807657 179.03227416 303.17164481 189.19270449 310.8125 199.4375 C313.41958551 202.92778295 316.07196253 206.36363915 318.8125 209.75 C322.8138751 214.7059775 326.62261376 219.79531229 330.43237305 224.89868164 C335.22516787 231.31546263 340.10196722 237.66321922 345 244 C346.68875818 246.18653195 348.37627399 248.37401466 350.0625 250.5625 C350.47846436 251.10229492 350.89442871 251.64208984 351.32299805 252.19824219 C354.05845677 255.75557 356.75566361 259.33944904 359.4375 262.9375 C362.58729979 267.15186626 365.79899957 271.31092508 369.0625 275.4375 C378.16704457 286.95723462 387.03558846 298.6666689 395.8125 310.4375 C400.77753592 317.03284623 405.89969043 323.50869691 411 330 C411.33 221.1 411.66 112.2 412 0 C460.84 0 509.68 0 560 0 C560 176.88 560 353.76 560 536 C401.64874387 536 401.64874387 536 393.73828125 528.84375 C391.1203934 526.06702401 389.05959463 522.99231968 386.9375 519.828125 C384.79213561 516.69658504 382.51316655 513.68551352 380.1875 510.6875 C379.76146484 510.13731201 379.33542969 509.58712402 378.89648438 509.02026367 C378.02667038 507.89827534 377.15622548 506.77677582 376.28515625 505.65576172 C374.24455182 503.02670031 372.21633729 500.38814719 370.1875 497.75 C369.57418823 496.95275513 369.57418823 496.95275513 368.94848633 496.1394043 C361.23482326 486.10853494 353.55849358 476.04907394 345.89257812 465.98168945 C334.41409677 450.89900913 334.41409677 450.89900913 322.80859375 435.9140625 C316.57968043 427.94077096 310.42122467 419.92549895 304.375 411.8125 C299.48563586 405.25339793 294.49701117 398.80076784 289.34936523 392.44287109 C285.24886107 387.36053664 281.3309608 382.15455063 277.43334961 376.91577148 C273.70087381 371.90798731 269.87834653 366.98007258 266.00585938 362.08007812 C261.68875311 356.61672719 257.44332371 351.10022291 253.20751953 345.57373047 C251.26779162 343.04573085 249.32046631 340.52358485 247.375 338 C242.18516422 331.26026805 237.03666112 324.48907803 231.88427734 317.72070312 C228.26776462 312.97141986 224.64442166 308.22789837 221 303.5 C211.88080513 291.66346929 202.81137255 279.78775429 193.875 267.8125 C189.00170673 261.28400045 184.01436681 254.84913113 178.99951172 248.42895508 C175.0802191 243.40624087 171.23663507 238.33411632 167.43359375 233.22265625 C163.5976546 228.10751405 159.63673171 223.0867018 155.6953125 218.05273438 C154.82712891 216.94188477 154.82712891 216.94188477 153.94140625 215.80859375 C153.42263916 215.14657959 152.90387207 214.48456543 152.36938477 213.80249023 C151.18640802 212.24536467 150.08472953 210.6270943 149 209 C148.67 316.91 148.34 424.82 148 536 C99.16 536 50.32 536 0 536 C0 359.12 0 182.24 0 0 Z " fill="#522F39" transform="translate(320,332)"/>
<path d="M0 0 C48.84 0 97.68 0 148 0 C148 172.59 148 345.18 148 523 C147.01 523 146.02 523 145 523 C143.8515625 521.59375 143.8515625 521.59375 142.625 519.5 C139.63493321 514.76510621 136.24417689 510.499442 132.6875 506.1875 C128.0315719 500.5258441 123.52955276 494.80350572 119.1640625 488.9140625 C113.83161456 481.73354596 108.36037094 474.66474082 102.73510742 467.71166992 C96.97798909 460.59169603 91.48535038 453.31124075 86.08007812 445.92089844 C81.15899678 439.19469236 76.1119405 432.58215149 71 426 C63.84285557 416.74357582 56.78978855 407.41459314 49.7890625 398.0390625 C45.15140917 391.83925226 40.46279782 385.68155687 35.734375 379.55078125 C32.64450673 375.54282621 29.57238905 371.5213601 26.5 367.5 C19.19333737 357.93979079 11.88021863 348.38475162 4.47265625 338.90234375 C3.98667969 338.27457031 3.50070312 337.64679688 3 337 C2.48224005 336.41817766 1.9644801 335.83635532 1.43103045 335.236902 C-0.38158744 332.40352512 -0.37292181 330.65733644 -0.36914349 327.30722427 C-0.37511663 326.13928935 -0.38108978 324.97135443 -0.38724393 323.76802754 C-0.3785054 322.48399313 -0.36976688 321.19995871 -0.36076355 319.87701416 C-0.36207151 318.5000016 -0.36469777 317.12298977 -0.36853105 315.74598193 C-0.37524983 311.95819991 -0.36322436 308.17067162 -0.34819686 304.38292193 C-0.33526076 300.29979118 -0.33962424 296.21667514 -0.34190369 292.13352966 C-0.34347796 285.05793102 -0.33405269 277.98241526 -0.31719017 270.90683746 C-0.29282558 260.67670977 -0.2849975 250.44662222 -0.2812262 240.21646866 C-0.27465772 223.61938737 -0.25468581 207.02235026 -0.22631836 190.42529297 C-0.19878804 174.30127175 -0.17758383 158.17726258 -0.16479492 142.05322266 C-0.16399093 141.04946614 -0.16318694 140.04570962 -0.16235858 139.01153624 C-0.15612044 131.16168743 -0.15024962 123.31183835 -0.14449489 115.46198916 C-0.11618566 76.97461888 -0.05583273 38.48735921 0 0 Z " fill="#2C333B" transform="translate(732,332)"/>
<path d="M0 0 C1.95811692 2.93717538 2.82889637 5.22470128 3.8828125 8.56640625 C4.24117187 9.68297607 4.59953125 10.7995459 4.96875 11.94995117 C5.3503125 13.14209229 5.731875 14.3342334 6.125 15.5625 C12.98716083 36.51007605 21.74441409 56.25922661 35 74 C35.721875 74.97582031 36.44375 75.95164062 37.1875 76.95703125 C39.44174264 79.98426588 41.71724147 82.99423254 44 86 C44.62132812 86.83015625 45.24265625 87.6603125 45.8828125 88.515625 C49.09937414 92.75629371 52.45199834 96.58635805 56.28125 100.28125 C57.96908456 101.96908456 59.47557635 103.72696948 61 105.5625 C76.60699272 123.53841126 97.35360348 139.07457856 119 149 C119 149.66 119 150.32 119 151 C119.52078125 151.10699219 120.0415625 151.21398438 120.578125 151.32421875 C123.76883474 152.21452969 126.70847284 153.50092442 129.75 154.8125 C130.37616211 155.08239746 131.00232422 155.35229492 131.64746094 155.63037109 C134.89601692 157.04245725 138.10016932 158.50490266 141.25 160.125 C172.48543487 176.10592016 209.73450733 179.24728883 244.125 180.75 C246.75266407 180.87504953 249.38026911 181.0013461 252.0078125 181.12890625 C258.33793713 181.43357092 264.66860145 181.72313792 271 182 C271 182.33 271 182.66 271 183 C208.21869401 183.88030162 147.40346453 175.60363881 95 138 C93.56527344 136.97519531 93.56527344 136.97519531 92.1015625 135.9296875 C73.57050527 122.35970071 55.81657351 106.41339191 42 88 C41.57702637 87.44812012 41.15405273 86.89624023 40.71826172 86.32763672 C33.78172014 77.26811535 27.5860581 67.94718708 22 58 C21.59394531 57.28360352 21.18789063 56.56720703 20.76953125 55.82910156 C13.91808136 43.6387911 8.66403939 31.16905239 4 18 C3.53962562 16.73937754 3.07875173 15.47893729 2.6171875 14.21875 C0.84625812 9.21556491 -0.1870822 5.35522791 0 0 Z " fill="#090C15" transform="translate(4,1017)"/>
<path d="M0 0 C3.28673738 1.4390084 5.47727154 3.22010578 8.01171875 5.74609375 C8.76509521 6.49528076 9.51847168 7.24446777 10.29467773 8.01635742 C11.08430908 8.81533447 11.87394043 9.61431152 12.6875 10.4375 C13.49968994 11.25645752 14.31187988 12.07541504 15.14868164 12.91918945 C20.82663181 18.69528126 26.13026488 24.51936391 31 31 C31.85153854 32.0989769 32.70310263 33.197934 33.5546875 34.296875 C51.6730262 58.00805451 76.52184194 96.51474803 76.0625 127.75 C76.05347656 128.54921875 76.04445313 129.3484375 76.03515625 130.171875 C76.02355469 130.77515625 76.01195312 131.3784375 76 132 C75.67 132 75.34 132 75 132 C74.84966309 131.35675781 74.69932617 130.71351563 74.54443359 130.05078125 C71.46964819 117.01722378 68.23223232 104.34167775 63 92 C62.70367676 91.29214355 62.40735352 90.58428711 62.10205078 89.85498047 C51.39487102 64.46081384 37.32794446 42.33204514 19.27832031 21.47802734 C18.1145038 20.13239228 16.95912454 18.77947166 15.8046875 17.42578125 C12.03653349 13.07393279 8.14764747 9.22270364 3.6640625 5.60546875 C1.86661104 3.87130783 0.97977879 2.28120213 0 0 Z " fill="#0B0E16" transform="translate(1123,64)"/>
<path d="M0 0 C0.99 0 1.98 0 3 0 C1.69312894 3.92061318 -0.77204887 5.50699382 -3.9375 7.9375 C-4.5557666 8.41622559 -5.1740332 8.89495117 -5.81103516 9.38818359 C-27.10081656 25.63329258 -50.60562094 39.09460201 -75.875 48.0625 C-77.13231934 48.51133545 -77.13231934 48.51133545 -78.41503906 48.96923828 C-82.3765482 50.32185001 -85.75198452 51.40416342 -90 51 C-87.34813319 48.34813319 -84.36986118 47.70475436 -80.875 46.625 C-76.04954425 45.07976341 -71.50180229 43.42261787 -67.04296875 41.0078125 C-64.48953333 39.74818279 -61.86744257 38.83668579 -59.1875 37.875 C-40.2361372 30.67523284 -22.26319187 19.55753382 -6.84765625 6.42578125 C-5 5 -5 5 -2 4 C-0.79117904 1.99983534 -0.79117904 1.99983534 0 0 Z " fill="#0A0E15" transform="translate(1119,1137)"/>
<path d="M0 0 C31.20987004 2.49973046 70.44808951 26.5288137 92 49 C91.505 49.99 91.505 49.99 91 51 C90.40316406 50.48953125 89.80632812 49.9790625 89.19140625 49.453125 C64.69126238 28.92105792 37.27221222 13.80918013 7.01367188 3.69238281 C4.64075966 2.87647847 2.31441355 1.96904307 0 1 C0 0.67 0 0.34 0 0 Z " fill="#0D131B" transform="translate(1029,12)"/>
<path d="M0 0 C0.99 0.33 1.98 0.66 3 1 C2.24356201 1.54060059 1.48712402 2.08120117 0.70776367 2.63818359 C-9.01089609 9.75619796 -17.29973411 18.01086993 -25.6875 26.625 C-27.71589346 28.70127038 -29.74656358 30.77512089 -31.78340149 32.84310913 C-33.03839743 34.11784636 -34.28843229 35.39749139 -35.53288269 36.68252563 C-36.98435933 38.15955953 -38.48760075 39.58541099 -40 41 C-40.66 41 -41.32 41 -42 41 C-42.24492188 41.55171875 -42.48984375 42.1034375 -42.7421875 42.671875 C-44.25738114 45.47639491 -46.11084126 47.78103123 -48.125 50.25 C-48.84945312 51.14203125 -49.57390625 52.0340625 -50.3203125 52.953125 C-50.87460937 53.62859375 -51.42890625 54.3040625 -52 55 C-52.495 53.515 -52.495 53.515 -53 52 C-51.24014858 49.39943525 -49.45631472 47.07849844 -47.4375 44.6875 C-46.81979736 43.94983398 -46.20209473 43.21216797 -45.56567383 42.45214844 C-34.02654093 28.9495907 -21.38199921 15.93738624 -7.3125 5.0625 C-6.61213623 4.51883789 -5.91177246 3.97517578 -5.19018555 3.41503906 C-3.23828125 1.97265625 -3.23828125 1.97265625 0 0 Z " fill="#181C25" transform="translate(95,48)"/>
<path d="M0 0 C8.0358186 7.53357994 14.3550272 16.7436735 21.00976562 25.47753906 C24.46987986 30.01470842 27.96293241 34.52261699 31.5 39 C40.16697092 49.98038914 48.62986211 61.11927892 56.98828125 72.3359375 C59.52417481 75.69414994 62.14112417 78.98424897 64.78515625 82.2578125 C66 84 66 84 66 86 C65.34 86 64.68 86 64 86 C62.40625 84.05078125 62.40625 84.05078125 60.5 81.3125 C57.40932735 76.95644326 54.26345536 72.66569946 51 68.4375 C50.5767041 67.88827881 50.1534082 67.33905762 49.71728516 66.77319336 C47.14084406 63.44261164 44.52181329 60.14978271 41.875 56.875 C38.4753499 52.65263457 35.28944711 48.30365271 32.12109375 43.90625 C25.91670602 35.40521046 19.35603481 27.1663629 12.8425293 18.90161133 C9.49586197 14.64894346 6.21725553 10.35154434 3 6 C2.4534375 5.31164062 1.906875 4.62328125 1.34375 3.9140625 C0 2 0 2 0 0 Z " fill="#903240" transform="translate(576,462)"/>
<path d="M0 0 C-5.28847733 2.07761609 -10.45325704 3.77827018 -16 5 C-16.75692139 5.16733643 -17.51384277 5.33467285 -18.29370117 5.50708008 C-38.68635255 9.79564588 -59.52346081 11.18298322 -80.3125 11.0625 C-81.84309747 11.05746888 -83.37369657 11.05290886 -84.90429688 11.04882812 C-88.60289911 11.03796424 -92.30143864 11.02079101 -96 11 C-96 10.67 -96 10.34 -96 10 C-94.47753662 9.93268677 -94.47753662 9.93268677 -92.92431641 9.86401367 C-65.89341772 8.64780395 -39.41065495 7.1066598 -12.98193359 0.89355469 C-11.86641113 0.63477539 -10.75088867 0.37599609 -9.6015625 0.109375 C-8.61494629 -0.12813477 -7.62833008 -0.36564453 -6.61181641 -0.61035156 C-4.01356787 -0.99797585 -2.45836645 -0.84831467 0 0 Z " fill="#050A10" transform="translate(1028,1189)"/>
<path d="M0 0 C0.925198 2.50959958 1.0890388 3.72639118 0.25 6.3046875 C-0.36875 7.57699219 -0.36875 7.57699219 -1 8.875 C-1.47179688 9.85082031 -1.94359375 10.82664062 -2.4296875 11.83203125 C-2.94789062 12.87746094 -3.46609375 13.92289063 -4 15 C-4.49757813 16.05574219 -4.99515625 17.11148437 -5.5078125 18.19921875 C-13.47383031 34.76622681 -23.49677233 49.69281203 -35 64 C-35.70431152 64.8981543 -35.70431152 64.8981543 -36.42285156 65.81445312 C-37.56884047 67.24798716 -38.77884832 68.62992738 -40 70 C-40.66 70 -41.32 70 -42 70 C-41.61121002 67.18127263 -41.29189635 66.22804402 -39 64.4375 C-38.34 63.963125 -37.68 63.48875 -37 63 C-36.67 62.01 -36.34 61.02 -36 60 C-35.01 59.34 -34.02 58.68 -33 58 C-32.67 57.01 -32.34 56.02 -32 55 C-31.21625 54.236875 -30.4325 53.47375 -29.625 52.6875 C-26.94325527 49.94190421 -25.54076562 47.48699587 -24 44 C-23.34 44 -22.68 44 -22 44 C-21.73703125 43.11699219 -21.4740625 42.23398438 -21.203125 41.32421875 C-20.03113321 38.08602065 -18.66296862 35.66041049 -16.75 32.8125 C-10.74256152 23.5712437 -6.13235811 14.25721219 -2.19921875 3.9921875 C-1 1 -1 1 0 0 Z " fill="#0B0F17" transform="translate(1186,1045)"/>
<path d="M0 0 C0.33 0 0.66 0 1 0 C1.32036531 7.23429578 0.21914445 13.34875206 -1.6875 20.3125 C-1.95788086 21.32199707 -2.22826172 22.33149414 -2.50683594 23.37158203 C-6.43890418 37.67776467 -6.43890418 37.67776467 -10 44 C-10.99 44.495 -10.99 44.495 -12 45 C-10.62431892 39.73862325 -9.1665747 34.50740065 -7.5703125 29.30859375 C-4.58850552 19.5942792 -1.88690902 9.99730745 0 0 Z " fill="#050A12" transform="translate(1199,999)"/>
<path d="M0 0 C0.66 0.33 1.32 0.66 2 1 C0.91332031 2.051875 0.91332031 2.051875 -0.1953125 3.125 C-5.20916701 8.02965042 -9.93436742 12.79599212 -13.87890625 18.63671875 C-14.24886719 19.08660156 -14.61882813 19.53648438 -15 20 C-15.66 20 -16.32 20 -17 20 C-17.24492188 20.55171875 -17.48984375 21.1034375 -17.7421875 21.671875 C-19.25738114 24.47639491 -21.11084126 26.78103123 -23.125 29.25 C-23.84945312 30.14203125 -24.57390625 31.0340625 -25.3203125 31.953125 C-25.87460937 32.62859375 -26.42890625 33.3040625 -27 34 C-27.495 32.515 -27.495 32.515 -28 31 C-27.05053711 29.32104492 -27.05053711 29.32104492 -25.52734375 27.48046875 C-24.96354004 26.7939624 -24.39973633 26.10745605 -23.81884766 25.40014648 C-23.19800293 24.66997314 -22.5771582 23.9397998 -21.9375 23.1875 C-21.31149902 22.43863525 -20.68549805 21.68977051 -20.04052734 20.91821289 C-13.77148658 13.52774686 -6.9900969 6.70326922 0 0 Z " fill="#0F101D" transform="translate(70,69)"/>
<path d="M0 0 C0 3.92709135 -1.27900462 4.8189713 -3.875 7.6875 C-4.59429688 8.49574219 -5.31359375 9.30398438 -6.0546875 10.13671875 C-8 12 -8 12 -10 12 C-10.226875 12.5775 -10.45375 13.155 -10.6875 13.75 C-12.33038023 16.5663661 -14.39533227 18.08077114 -17 20 C-17.66 19.67 -18.32 19.34 -19 19 C-18.2575 18.278125 -17.515 17.55625 -16.75 16.8125 C-14.04961342 14.16513453 -14.04961342 14.16513453 -12.1875 11.625 C-9.64721483 8.57665779 -6.82085859 6.11737212 -3.8046875 3.55078125 C-1.92288746 1.97318991 -1.92288746 1.97318991 0 0 Z " fill="#0C1119" transform="translate(1142,1116)"/>
<path d="M0 0 C0.99 0.33 1.98 0.66 3 1 C2.10796875 1.67546875 1.2159375 2.3509375 0.296875 3.046875 C-0.88553624 3.94775975 -2.06782124 4.8488102 -3.25 5.75 C-4.12978516 6.41515625 -4.12978516 6.41515625 -5.02734375 7.09375 C-8.24377849 9.5512507 -11.21242594 12.04682748 -14 15 C-14.66 14.67 -15.32 14.34 -16 14 C-11.75287798 8.14190066 -6.28831132 3.59193015 0 0 Z " fill="#10121E" transform="translate(95,48)"/>
<path d="M0 0 C-3.42346555 3.14958831 -6.44262737 3.56179109 -11 4 C-11 3.34 -11 2.68 -11 2 C-7.17679443 0.57741188 -4.08718695 -0.24042276 0 0 Z " fill="#0A0E1A" transform="translate(171,12)"/>
<path d="M0 0 C0.66 0.33 1.32 0.66 2 1 C0.35 3.64 -1.3 6.28 -3 9 C-3.33 7.68 -3.66 6.36 -4 5 C-2.0625 2.25 -2.0625 2.25 0 0 Z " fill="#0E101E" transform="translate(35,111)"/>
<path d="M0 0 C0.66 0 1.32 0 2 0 C1.25 6.75 1.25 6.75 -1 9 C-0.67 6.03 -0.34 3.06 0 0 Z " fill="#0C101B" transform="translate(6,170)"/>
</svg>
